<?xml version="1.0" encoding="UTF-8"?>
<svg version="1.1" xmlns="http://www.w3.org/2000/svg" width="32" height="32">
<path d="M0 0 C10.56 0 21.12 0 32 0 C32 7.92 32 15.84 32 24 C28.04 24 24.08 24 20 24 C20 24.66 20 25.32 20 26 C21.65 26.33 23.3 26.66 25 27 C25 27.99 25 28.98 25 30 C19.06 30 13.12 30 7 30 C7.33 28.68 7.66 27.36 8 26 C9.32 26 10.64 26 12 26 C12 25.34 12 24.68 12 24 C8.04 24 4.08 24 0 24 C0 16.08 0 8.16 0 0 Z " fill="#E6E4D4" transform="translate(0,1)"/>
<path d="M0 0 C10.56 0 21.12 0 32 0 C32 7.92 32 15.84 32 24 C28.04 24 24.08 24 20 24 C20 24.66 20 25.32 20 26 C21.65 26.33 23.3 26.66 25 27 C25 27.99 25 28.98 25 30 C19.06 30 13.12 30 7 30 C7.33 28.68 7.66 27.36 8 26 C9.32 26 10.64 26 12 26 C12 25.34 12 24.68 12 24 C8.04 24 4.08 24 0 24 C0 16.08 0 8.16 0 0 Z M1 1 C1 7.27 1 13.54 1 20 C10.9 20 20.8 20 31 20 C31 14.06 31 8.12 31 2 C28.18175808 0.59087904 25.82748718 0.88816447 22.6796875 0.90234375 C20.79443359 0.90717773 20.79443359 0.90717773 18.87109375 0.91210938 C17.55238281 0.92048828 16.23367187 0.92886719 14.875 0.9375 C13.53515789 0.94251511 12.195314 0.94707799 10.85546875 0.95117188 C7.57029343 0.96298905 4.28514119 0.98092499 1 1 Z " fill="#978ECB" transform="translate(0,1)"/>
<path d="M0 0 C9.24 0 18.48 0 28 0 C28 0.66 28 1.32 28 2 C23.71 2 19.42 2 15 2 C15 3.65 15 5.3 15 7 C14.278125 6.319375 13.55625 5.63875 12.8125 4.9375 C10.20009513 2.75905972 10.20009513 2.75905972 7.3125 2.9375 C4.79918898 3.83031247 4.79918898 3.83031247 3.5625 6.375 C3.376875 7.24125 3.19125 8.1075 3 9 C4.66954819 12.22404978 4.66954819 12.22404978 7.625 12.6875 C8.40875 12.790625 9.1925 12.89375 10 13 C9.67 13.66 9.34 14.32 9 15 C7.68 15 6.36 15 5 15 C5 15.66 5 16.32 5 17 C10.58500567 16.80101292 10.58500567 16.80101292 15 14 C18.125 13.875 18.125 13.875 21 14 C21.3403125 13.0409375 21.3403125 13.0409375 21.6875 12.0625 C23 10 23 10 25.625 9.25 C26.800625 9.12625 26.800625 9.12625 28 9 C28 9.99 28 10.98 28 12 C26.35 12 24.7 12 23 12 C23 13.98 23 15.96 23 18 C24.65 18 26.3 18 28 18 C28 18.33 28 18.66 28 19 C18.76 19 9.52 19 0 19 C0 12.73 0 6.46 0 0 Z " fill="#FDFEFE" transform="translate(1,2)"/>
<path d="M0 0 C0 5.94 0 11.88 0 18 C-2.31 17.67 -4.62 17.34 -7 17 C-7 15.02 -7 13.04 -7 11 C-5.35 11 -3.7 11 -2 11 C-2 10.01 -2 9.02 -2 8 C-2.99 8 -3.98 8 -5 8 C-5 7.34 -5 6.68 -5 6 C-5.99 6.33 -6.98 6.66 -8 7 C-8 6.34 -8 5.68 -8 5 C-9.98 5 -11.96 5 -14 5 C-14.33 5.99 -14.66 6.98 -15 8 C-15 5.69 -15 3.38 -15 1 C-12.8750734 0.83240016 -10.75005624 0.66594799 -8.625 0.5 C-7.44164062 0.4071875 -6.25828125 0.314375 -5.0390625 0.21875 C-3.36213157 0.09804546 -1.68126944 0 0 0 Z " fill="#C2EFE8" transform="translate(31,3)"/>
<path d="M0 0 C9.24 0 18.48 0 28 0 C28 0.66 28 1.32 28 2 C23.71 2 19.42 2 15 2 C15 3.65 15 5.3 15 7 C14.278125 6.319375 13.55625 5.63875 12.8125 4.9375 C10.2172313 2.77152041 10.2172313 2.77152041 7.4375 2.9375 C4.28106695 4.31338107 2.9360599 6.20346904 1 9 C0 7 0 7 0 0 Z " fill="#E0E0F0" transform="translate(1,2)"/>
<path d="M0 0 C2.64 0 5.28 0 8 0 C8 0.66 8 1.32 8 2 C9.65 2.33 11.3 2.66 13 3 C13 3.99 13 4.98 13 6 C7.06 6 1.12 6 -5 6 C-4.67 4.68 -4.34 3.36 -4 2 C-2.68 2 -1.36 2 0 2 C0 1.34 0 0.68 0 0 Z " fill="#8B81C5" transform="translate(12,25)"/>
<path d="M0 0 C10.23 0 20.46 0 31 0 C31 7.92 31 15.84 31 24 C30.01 24 29.02 24 28 24 C28 22.68 28 21.36 28 20 C28.66 20 29.32 20 30 20 C30 14.06 30 8.12 30 2 C15.15 1.505 15.15 1.505 0 1 C0 0.67 0 0.34 0 0 Z " fill="#958DCA" transform="translate(1,1)"/>
<path d="M0 0 C0.33 0.66 0.66 1.32 1 2 C1.66 2 2.32 2 3 2 C3.99 3.485 3.99 3.485 5 5 C7.56282742 5.72965366 7.56282742 5.72965366 10 6 C9.67 6.66 9.34 7.32 9 8 C7.68 8 6.36 8 5 8 C4.67 9.32 4.34 10.64 4 12 C2.68 12 1.36 12 0 12 C0 8.04 0 4.08 0 0 Z " fill="#FEF1F2" transform="translate(1,9)"/>
<path d="M0 0 C2.375 0.25 2.375 0.25 5 1 C6.3125 3.0625 6.3125 3.0625 7 5 C6.34 5 5.68 5 5 5 C5 4.34 5 3.68 5 3 C3.02 3 1.04 3 -1 3 C-1 3.66 -1 4.32 -1 5 C-0.34 5 0.32 5 1 5 C0.67 5.99 0.34 6.98 0 8 C0.66 8.33 1.32 8.66 2 9 C2 9.66 2 10.32 2 11 C0.125 10.8125 0.125 10.8125 -2 10 C-3.25 7.4375 -3.25 7.4375 -4 5 C-2.68 3.35 -1.36 1.7 0 0 Z " fill="#A79FD3" transform="translate(7,4)"/>
<path d="M0 0 C7.59 0 15.18 0 23 0 C23 0.33 23 0.66 23 1 C18.71 1 14.42 1 10 1 C10 2.65 10 4.3 10 6 C9.278125 5.360625 8.55625 4.72125 7.8125 4.0625 C5.01808816 2.01326465 3.38336726 1.38667054 0 1 C0 0.67 0 0.34 0 0 Z " fill="#FBFBFD" transform="translate(6,3)"/>
<path d="M0 0 C1.98 0 3.96 0 6 0 C6 1.65 6 3.3 6 5 C4.35 5.33 2.7 5.66 1 6 C0.67 5.34 0.34 4.68 0 4 C0.66 4 1.32 4 2 4 C2 3.34 2 2.68 2 2 C1.34 2 0.68 2 0 2 C0 1.34 0 0.68 0 0 Z " fill="#F9F9FA" transform="translate(6,7)"/>
<path d="M0 0 C0.33 0 0.66 0 1 0 C1 7.26 1 14.52 1 22 C0.01 22 -0.98 22 -2 22 C-2 20.68 -2 19.36 -2 18 C-1.34 18 -0.68 18 0 18 C0 12.06 0 6.12 0 0 Z " fill="#847AC1" transform="translate(31,3)"/>
<path d="M0 0 C1.65 0 3.3 0 5 0 C4.67 0.99 4.34 1.98 4 3 C4.66 3.33 5.32 3.66 6 4 C6 4.66 6 5.32 6 6 C4.125 5.8125 4.125 5.8125 2 5 C0.75 2.4375 0.75 2.4375 0 0 Z " fill="#66B9BA" transform="translate(3,9)"/>
<path d="M0 0 C1.65 0 3.3 0 5 0 C4.67 1.65 4.34 3.3 4 5 C3.67 4.34 3.34 3.68 3 3 C2.01 3 1.02 3 0 3 C0 2.01 0 1.02 0 0 Z " fill="#C3E2FE" transform="translate(24,14)"/>
</svg>
